# xmcd
#
# Track frame offsets: 
#        150
#        16620
#        28675
#        39840
#        48562
#        63002
#        78550
#        90242
#        101765
#        110430
#        125635
#        137790
#
# Disc length: 1999 seconds
#
# Revision: 0
# Processed by: cddbd v1.5.1PL0 Copyright (c) Steve Scherf et al.
# Submitted via: ExactAudioCopy v0.95a5
#
DISCID=8f07cd0c
DTITLE=Daryl Mosley and Tim Graves - Remembering The Beacon Brothers
DYEAR=2004
DGENRE=Bluegrass
TTITLE0=Driftwood
TTITLE1=Why You Been Gone So Long
TTITLE2=Blue Side Of Lonesome
TTITLE3=Tupelo County Jail
TTITLE4=Satan's Jeweled Crown
TTITLE5=Knoxville Girl
TTITLE6=Which One Is To Blame
TTITLE7=Somebody's Back In Town
TTITLE8=She's Not You
TTITLE9=Sweetest Gift
TTITLE10=Someone Before Me
TTITLE11=Friend Like Me
EXTD=
EXTT0=
EXTT1=
EXTT2=
EXTT3=
EXTT4=
EXTT5=
EXTT6=
EXTT7=
EXTT8=
EXTT9=
EXTT10=
EXTT11=
PLAYORDER=
